<?xml version="1.0" standalone="no"?>
<!DOCTYPE svg PUBLIC "-//W3C//DTD SVG 20010904//EN"
 "http://www.w3.org/TR/2001/REC-SVG-20010904/DTD/svg10.dtd">
<svg version="1.0" xmlns="http://www.w3.org/2000/svg"
 width="225.000000pt" height="225.000000pt" viewBox="0 0 225.000000 225.000000"
 preserveAspectRatio="xMidYMid meet">

<g transform="translate(0.000000,225.000000) scale(0.100000,-0.100000)"
fill="#000000" stroke="none">
<path d="M1011 2173 c-27 -10 -67 -38 -102 -72 -54 -54 -72 -87 -96 -179 l-8
-32 -38 25 c-165 113 -397 44 -466 -138 -37 -102 -22 -227 39 -304 l22 -28
-34 -8 c-91 -23 -125 -42 -179 -96 -65 -66 -89 -124 -89 -216 0 -92 24 -150
89 -216 54 -54 88 -73 179 -96 l34 -8 -22 -28 c-91 -115 -76 -303 31 -408 109
-106 292 -119 406 -29 l28 22 8 -34 c23 -91 42 -125 96 -179 66 -65 124 -89
216 -89 92 0 150 24 216 89 54 54 73 88 96 179 l8 34 28 -22 c45 -35 122 -60
187 -60 251 0 397 279 255 487 l-25 38 32 8 c92 24 125 42 179 96 65 66 89
124 89 216 0 92 -24 150 -89 216 -54 54 -88 73 -179 96 l-34 8 22 28 c90 114
76 302 -30 407 -105 106 -293 120 -407 30 l-28 -22 -8 34 c-23 91 -42 125 -96
179 -38 37 -73 61 -106 72 -60 21 -165 21 -224 0z m188 -138 c91 -47 124 -173
66 -249 -12 -16 -15 -55 -15 -190 l0 -171 120 120 c66 66 120 126 120 134 0 8
9 34 21 58 57 118 227 124 294 10 59 -101 2 -230 -112 -253 -21 -4 -67 -42
-149 -125 l-119 -119 170 0 c141 0 175 3 194 16 79 56 200 23 246 -67 19 -36
19 -112 0 -148 -47 -91 -173 -124 -249 -66 -16 12 -55 15 -190 15 l-171 0 119
-119 c82 -83 128 -121 149 -125 77 -15 137 -90 137 -170 0 -127 -144 -206
-256 -141 -40 24 -84 89 -84 126 0 8 -54 68 -120 134 l-120 120 0 -170 c0
-141 3 -175 16 -194 56 -79 23 -200 -67 -246 -36 -19 -112 -19 -148 0 -91 47
-124 173 -66 249 12 16 15 55 15 190 l0 171 -120 -120 c-66 -66 -120 -126
-120 -134 0 -8 -9 -34 -21 -58 -42 -88 -149 -118 -236 -68 -132 78 -96 281 54
311 21 4 67 42 149 125 l119 119 -171 0 c-135 0 -174 -3 -190 -15 -76 -58
-202 -25 -249 66 -19 36 -19 112 0 148 46 90 167 123 246 67 19 -13 53 -16
194 -16 l170 0 -119 119 c-82 83 -128 121 -149 125 -77 16 -137 90 -137 171 0
54 41 120 90 145 85 43 189 10 229 -73 12 -24 21 -50 21 -58 0 -8 54 -68 120
-134 l120 -120 0 171 c0 135 -3 174 -15 190 -57 75 -29 191 59 245 38 23 115
25 155 4z"/>
</g>
</svg>
